# xmcd
#
# Track frame offsets: 
#        150
#        16425
#        26310
#        37845
#        49892
#        64447
#        74732
#        86482
#        102590
#        115367
#        128955
#        140695
#        152347
#        162120
#        177122
#        197300
#        211392
#        221577
#
# Disc length: 3169 seconds
#
# Revision: 7
# Processed by: cddbd v1.5.2PL0 Copyright (c) Steve Scherf et al.
# Submitted via: ExactAudioCopy v0.99pb4
#
DISCID=000c5f12
DTITLE=Various Artist - Legends Of Country - The First Ladies Of Country
DYEAR=2001
DGENRE=Country
TTITLE0=Billie Jo Spears - Blanket On The Ground
TTITLE1=Brenda Lee - I'm Sorry
TTITLE2=Patsy Cline - I've loved and Lost Again
TTITLE3=Tanya Tucker - You're So Beautiful
TTITLE4=Loretta Lynn - Coal Miners Daughter
TTITLE5=Stella Parton - Danger Of A Stranger
TTITLE6=Sweethearts Of The Rodeo - Hey Doll Baby
TTITLE7=Susan McCann - Woman's Heart
TTITLE8=Lorrie Morgan - Love Is Fair
TTITLE9=Kathy Mattea - Heart Of The Country
TTITLE10=Patsy Cline - Walking After Midnight
TTITLE11=Brenda Lee - Silver Threads And Golden Needles
TTITLE12=Dolly Parton - Release Me
TTITLE13=Susan McCann - Daddy's Hands
TTITLE14=Tanya Tucker - Baby I'm Yours
TTITLE15=Sweethearts Of The Rodeo - Chains Of Gold
TTITLE16=Loretta Lynn - You're Looking At Country
TTITLE17=Billie Jo Spears - Fire And Rain
EXTD=
EXTT0=
EXTT1=
EXTT2=
EXTT3=
EXTT4=
EXTT5=
EXTT6=
EXTT7=
EXTT8=
EXTT9=
EXTT10=
EXTT11=
EXTT12=
EXTT13=
EXTT14=
EXTT15=
EXTT16=
EXTT17=
PLAYORDER=
